<svg width="1440" height="1024" viewBox="0 0 1440 1024" fill="none" xmlns="http://www.w3.org/2000/svg">
<g clip-path="url(#clip0_1303_12600)">
<path d="M1440 0H0V1024H1440V0Z" fill="#141313"/>
<path d="M0 766.293L48 756.395C96 746.325 192 726.528 288 711.68C384 696.832 480 687.275 576 685.739C672 684.373 768 691.2 864 697.685C960 704.341 1056 710.485 1152 704C1248 697.515 1344 678.059 1392 668.501L1440 658.773V1025.71H1392C1344 1025.71 1248 1025.71 1152 1025.71C1056 1025.71 960 1025.71 864 1025.71C768 1025.71 672 1025.71 576 1025.71C480 1025.71 384 1025.71 288 1025.71C192 1025.71 96 1025.71 48 1025.71H0V766.293Z" fill="black"/>
</g>
<defs>
<clipPath id="clip0_1303_12600">
<rect width="1440" height="1024" fill="white"/>
</clipPath>
</defs>
</svg>
